<svg width="30" height="31" viewBox="0 0 30 31" fill="none" xmlns="http://www.w3.org/2000/svg">
<path d="M11.1258 0.0593548C10.3677 0.148716 9.77042 0.252375 9.24112 0.381056C8.63673 0.527607 8.29698 0.624117 8.11101 0.702755C8.04664 0.73135 7.97154 0.752798 7.94293 0.752798C7.91432 0.752798 7.83921 0.774244 7.77484 0.802839C7.71047 0.831434 7.5853 0.881477 7.49589 0.913647C7.17402 1.03518 6.66619 1.25679 6.31571 1.42837C6.20484 1.48198 5.68628 1.76794 5.58257 1.83228C5.52535 1.86802 5.44309 1.91092 5.40375 1.93236C5.32865 1.97168 4.95672 2.21474 4.60981 2.45066C3.98396 2.88317 3.14711 3.63737 2.52483 4.32724C2.24588 4.63822 1.69155 5.40315 1.3983 5.88212C1.17657 6.24672 0.768867 7.06527 0.697341 7.29403C0.683036 7.34407 0.636544 7.47275 0.593628 7.57998C0.139438 8.76313 -0.064411 10.1679 0.0178439 11.5726C0.0929462 12.7808 0.261032 13.6923 0.582899 14.6395C0.632968 14.7753 0.67946 14.9219 0.690188 14.9612C0.697341 15.0005 0.729528 15.0792 0.754562 15.1399C0.779596 15.1971 0.836817 15.3365 0.879732 15.4438C0.972716 15.6761 1.35538 16.4518 1.45552 16.6055C1.49128 16.6626 1.53777 16.7449 1.55923 16.7842C1.70943 17.0666 2.13501 17.6635 2.50337 18.1067C2.59993 18.2247 2.94326 18.5821 3.26512 18.9002L3.84806 19.4793V22.1458C3.84806 24.3656 3.85521 24.816 3.89813 24.8303C3.94462 24.8481 4.07337 24.7838 4.55617 24.4978C4.7028 24.412 4.82439 24.3441 4.83154 24.3441C4.8387 24.3441 5.00321 24.2512 5.19633 24.1368C5.38945 24.0224 5.57184 23.9188 5.60045 23.9045C5.62906 23.8902 5.68628 23.858 5.72562 23.833C5.76496 23.808 5.95093 23.7007 6.13689 23.5935C6.32286 23.4863 6.50883 23.379 6.54817 23.354C6.58751 23.329 6.64473 23.2968 6.67334 23.2825C6.74129 23.2503 7.24555 22.9608 7.31707 22.9143C7.34568 22.8929 7.39575 22.8679 7.42436 22.8536C7.45297 22.8393 7.59245 22.7606 7.72835 22.682C7.86782 22.5998 8.00372 22.5247 8.03233 22.5104C8.06094 22.4961 8.13605 22.4532 8.19327 22.4139C8.25406 22.3746 8.32559 22.3317 8.3542 22.3174C8.40427 22.2924 8.88707 22.0172 8.99793 21.9492C9.3055 21.7598 9.3055 21.7598 9.70962 21.8206C10.5894 21.9492 11.3297 21.9957 12.5385 21.9993C13.5076 21.9993 13.8188 21.9886 14.1657 21.9385C14.8345 21.8384 15.4853 21.7098 15.8573 21.6097C16.3615 21.4667 16.4617 21.4381 16.5725 21.3916C16.6369 21.363 16.712 21.3416 16.7406 21.3416C16.7943 21.3416 16.9838 21.2665 17.1591 21.1772C17.2091 21.1486 17.2699 21.1271 17.2914 21.1271C17.3879 21.1271 18.4894 20.5838 18.8149 20.3729C18.8757 20.3372 18.9472 20.2943 18.9758 20.28C19.1153 20.2121 20.0201 19.5579 20.3098 19.3113C20.7067 18.9753 21.4578 18.1997 21.7367 17.8386C22.2124 17.2167 22.2982 17.0952 22.5521 16.6734C22.7417 16.3552 22.7452 16.3481 22.9562 15.9263C23.0671 15.7083 23.2137 15.3973 23.2853 15.2293C23.5249 14.6681 23.8145 13.7209 23.9254 13.1382C24.2866 11.2188 24.2008 9.47801 23.6715 7.9553C23.6214 7.8159 23.5749 7.67292 23.5642 7.6336C23.5571 7.59428 23.5249 7.51207 23.4998 7.45488C23.4748 7.39411 23.4176 7.25829 23.3747 7.15105C23.2459 6.82935 22.8704 6.08944 22.6809 5.79276C21.8261 4.44877 20.9607 3.49082 19.759 2.54717C19.5373 2.3756 18.7362 1.82513 18.7076 1.82513C18.7004 1.82513 18.6325 1.78224 18.5574 1.73219C18.4823 1.68215 18.3893 1.62496 18.35 1.60709C18.3106 1.58564 18.1819 1.51773 18.0639 1.44981C17.8314 1.32113 17.6562 1.23177 17.295 1.06735C16.9159 0.895775 16.8086 0.849308 16.4116 0.702755C16.3365 0.67416 16.2113 0.631266 16.1327 0.599096C15.9753 0.541904 15.7107 0.463266 15.3924 0.377481C15.2779 0.348885 15.0991 0.298843 14.9954 0.270247C14.8881 0.241652 14.7737 0.216631 14.7343 0.216631C14.6986 0.216631 14.5555 0.195185 14.416 0.166588C13.6006 -0.00140953 12.0807 -0.0514526 11.1258 0.0593548ZM13.6936 1.98598C14.4017 2.09321 15.1492 2.27194 15.4996 2.41849C15.564 2.44708 15.6391 2.46853 15.6642 2.46853C15.7786 2.46853 16.7907 2.92606 17.2055 3.16912C17.3236 3.23704 17.4523 3.30853 17.4916 3.32997C17.7742 3.47295 18.6575 4.1092 19.0295 4.43805C19.3656 4.73473 19.9879 5.3817 20.2597 5.72128C20.5029 6.0251 20.9213 6.61846 20.9893 6.75786C21.0036 6.78646 21.0715 6.90799 21.1395 7.02595C21.5865 7.79803 21.9155 8.70593 22.1122 9.72465C22.2052 10.2144 22.2052 11.9337 22.1087 12.4591C21.9871 13.1418 21.819 13.7995 21.6616 14.1999C21.6437 14.2427 21.6008 14.3536 21.5686 14.4429C20.6889 16.6805 18.89 18.4642 16.6155 19.3578C16.526 19.3899 16.4152 19.4364 16.3651 19.4543C15.8108 19.6723 15.142 19.8403 14.1478 20.0083C13.8295 20.0619 13.5613 20.0727 12.3775 20.0691C10.9506 20.0691 10.1638 20.0191 9.41636 19.8868L9.10165 19.8332L8.46864 20.2585C8.12174 20.4909 7.82491 20.6839 7.8106 20.691C7.7963 20.6982 7.36357 20.9842 6.84858 21.3273C6.33001 21.6704 5.88298 21.9457 5.85437 21.9421C5.8043 21.9314 5.79715 21.7562 5.78999 20.3408C5.78284 19.465 5.77926 18.7215 5.77926 18.6894C5.77926 18.6214 5.76854 18.6107 5.45382 18.3391C4.87446 17.8422 4.23073 17.1702 3.86594 16.6769C3.80872 16.5983 3.7515 16.5268 3.7372 16.5161C3.72647 16.5054 3.65494 16.4053 3.57626 16.2909C3.37241 15.9871 3.31877 15.8977 3.27585 15.8191C3.2544 15.7798 3.2079 15.6975 3.16856 15.6404C3.12923 15.5796 2.9969 15.3222 2.87173 15.0684C2.67146 14.6574 2.61066 14.5251 2.48549 14.1999C2.42827 14.0533 2.32456 13.7173 2.26018 13.4778C2.22442 13.3491 2.17435 13.1633 2.14574 13.0632C2.11713 12.9631 2.09567 12.8344 2.09567 12.7772C2.09567 12.72 2.07779 12.6164 2.05991 12.5485C2.03845 12.4805 1.99554 12.1088 1.96693 11.7263C1.88467 10.6218 1.96693 9.78184 2.26376 8.72381C2.29237 8.61657 2.33886 8.47717 2.3639 8.41998C2.38893 8.35921 2.42112 8.25913 2.43185 8.19836C2.44615 8.13402 2.47476 8.07326 2.49264 8.06253C2.51053 8.04824 2.52483 8.01607 2.52483 7.9839C2.52483 7.90526 2.99333 6.96518 3.15068 6.72927C3.21863 6.62203 3.27585 6.5291 3.27585 6.52195C3.27585 6.50765 3.45467 6.25387 3.55481 6.13234C3.56911 6.11089 3.68355 5.96434 3.80515 5.80349C4.06622 5.46034 4.70995 4.80622 5.13911 4.4452C5.75065 3.93405 6.46591 3.4801 7.22767 3.11551C7.48516 2.9904 7.72477 2.87602 7.76053 2.85457C7.79987 2.83312 7.8714 2.80453 7.92147 2.79023C7.97154 2.77236 8.10386 2.72589 8.21115 2.683C8.4293 2.60078 8.73687 2.49713 9.0337 2.40776C9.14099 2.37917 9.30192 2.32913 9.38775 2.30411C9.47716 2.27551 9.5773 2.25406 9.61663 2.25406C9.65597 2.25406 9.77042 2.23262 9.87055 2.20402C10.0708 2.14683 10.5322 2.06819 11.108 1.98956C11.648 1.91807 13.2215 1.91449 13.6936 1.98598Z" fill="#66A756"/>
<path d="M6.17344 9.5747C5.31155 9.67479 4.71073 10.4254 4.85021 11.2225C4.97895 11.9446 5.56189 12.4414 6.28073 12.4414C6.5418 12.4414 6.74922 12.3878 7.01029 12.2484C7.18911 12.1555 7.44302 11.8802 7.57177 11.6479C7.68621 11.4298 7.69337 11.4084 7.69337 11.0295C7.69337 10.5934 7.65045 10.4433 7.44302 10.1645C7.18553 9.82134 6.84936 9.63904 6.35225 9.5747C6.30218 9.56755 6.22351 9.56755 6.17344 9.5747Z" fill="#66A756"/>
<path d="M11.6256 9.64977C10.8138 9.925 10.4169 10.79 10.7387 11.5657C10.9605 12.0911 11.4933 12.4414 12.0727 12.4414C12.5448 12.4414 12.9381 12.2412 13.235 11.8516C13.7428 11.1904 13.539 10.2074 12.8022 9.77487C12.4697 9.57828 11.9797 9.52823 11.6256 9.64977Z" fill="#66A756"/>
<path d="M17.4206 9.64977C16.6087 9.925 16.2118 10.79 16.5336 11.5657C16.7554 12.0911 17.2882 12.4414 17.8676 12.4414C18.3468 12.4414 18.7295 12.2448 19.0299 11.8516C19.5377 11.1868 19.3339 10.2074 18.5972 9.77487C18.2646 9.57828 17.7746 9.52823 17.4206 9.64977Z" fill="#66A756"/>
<path d="M26.0418 8.82367C26.031 8.84155 26.0418 9.01312 26.0596 9.20971C26.099 9.5743 26.0632 10.3357 25.9774 11.0363C25.938 11.3651 25.938 11.3651 26.031 11.4866C26.0847 11.5581 26.149 11.6368 26.1777 11.6654C26.3636 11.8477 26.9787 12.827 27.1969 13.281C27.3686 13.6384 27.3864 13.6849 27.5724 14.1818C27.9122 15.1004 28.0659 16.3264 27.973 17.3916C27.905 18.1422 27.8442 18.4604 27.6189 19.1788C27.5152 19.5113 27.4508 19.6757 27.2684 20.0903C27.1397 20.3763 26.9144 20.7945 26.7677 21.0125C26.7105 21.0983 26.664 21.1734 26.664 21.1841C26.664 21.202 26.0239 22.0598 25.9881 22.092C25.9774 22.1027 25.8486 22.2421 25.702 22.4066C25.559 22.5674 25.2693 22.8498 25.0583 23.0357C24.6971 23.3502 24.0247 23.8757 23.9103 23.9257C23.8817 23.94 23.7136 24.0437 23.5348 24.158L23.2129 24.3654L23.195 26.0239C23.1843 26.939 23.17 27.6896 23.1664 27.6932C23.1378 27.7289 22.9804 27.636 22.1829 27.1034C21.6858 26.7745 21.2638 26.4993 21.2459 26.4886C21.2245 26.4779 20.9205 26.2777 20.5664 26.0453C19.844 25.5628 19.8977 25.5807 19.3326 25.6808C18.6781 25.7987 18.4242 25.8202 17.5695 25.838C16.8721 25.8487 16.5824 25.838 16.2284 25.7916C15.599 25.7093 14.9838 25.5771 14.7263 25.4663C14.662 25.4377 14.5904 25.4162 14.5618 25.4162C14.4796 25.4162 13.4496 24.948 13.2171 24.8086C13.1885 24.7907 13.0347 24.6978 12.8774 24.6048C12.72 24.5119 12.4911 24.3689 12.366 24.2831C12.2408 24.1974 12.1299 24.1294 12.1192 24.1294C12.1085 24.1294 12.037 24.0794 11.9583 24.0151L11.8152 23.9043L10.467 23.9114C9.72667 23.915 9.11154 23.9328 9.09724 23.9471C9.0722 23.9686 9.35115 24.2295 10.1058 24.8944C10.3811 25.1374 11.4862 25.9238 11.7687 26.0775C11.8081 26.099 11.969 26.1883 12.1264 26.2741C12.4876 26.4707 12.5698 26.51 13.1277 26.7531C13.1885 26.7781 13.2958 26.8281 13.3709 26.8603C13.446 26.8925 13.5283 26.9175 13.5569 26.9175C13.5855 26.9175 13.6606 26.939 13.725 26.9676C14.0611 27.107 14.7728 27.2821 15.506 27.3965C16.5896 27.5716 18.1059 27.5681 19.2825 27.3929C19.6938 27.3321 19.7081 27.3357 19.8869 27.4537C19.9477 27.493 20.0264 27.5395 20.0658 27.5609C20.1051 27.5824 20.1802 27.6252 20.2338 27.661C20.2875 27.6932 20.6058 27.8898 20.9419 28.0971C21.2781 28.3044 21.5964 28.501 21.6501 28.5332C21.7895 28.6189 21.9147 28.694 21.997 28.7405C22.0363 28.7583 22.1114 28.8048 22.165 28.8406C22.2187 28.8727 22.537 29.0693 22.8731 29.2766C23.2093 29.484 23.5276 29.6806 23.5813 29.7127C23.6349 29.7485 23.71 29.7914 23.7493 29.8128C23.7887 29.8343 23.8709 29.8807 23.9282 29.92C23.989 29.9558 24.0712 30.0094 24.1177 30.0344C24.1606 30.0594 24.3752 30.1917 24.5933 30.324C24.8079 30.4598 25.0154 30.5634 25.0475 30.5563C25.1048 30.5456 25.1083 30.3418 25.1262 27.8647L25.1441 25.1875L25.2514 25.1124C25.398 25.0123 25.7664 24.7407 25.8737 24.6513C26.7356 23.9328 27.3686 23.2894 27.8871 22.596C27.9408 22.5245 27.998 22.4495 28.0159 22.4316C28.0659 22.3672 28.4736 21.7524 28.4987 21.6988C28.513 21.6702 28.5559 21.5952 28.5917 21.538C28.6632 21.4307 29.0995 20.5586 29.1853 20.3584C29.2104 20.2976 29.2604 20.1797 29.2926 20.0903C29.3498 19.9366 29.382 19.8473 29.4893 19.5542C29.5108 19.4862 29.5465 19.3647 29.5608 19.2825C29.5787 19.2039 29.6073 19.1002 29.6252 19.0502C29.7325 18.7785 29.872 17.9063 29.9185 17.2093C29.9936 16.137 29.8326 14.768 29.5179 13.8529C29.5 13.7921 29.4714 13.6956 29.4535 13.6384C29.4357 13.5777 29.3892 13.4419 29.3463 13.3346C29.3033 13.2274 29.2568 13.0987 29.2425 13.0487C29.1567 12.7734 28.7061 11.887 28.4844 11.5545C28.4271 11.4688 28.3807 11.3937 28.3807 11.3865C28.3807 11.3651 28.0624 10.904 27.8871 10.6717C27.297 9.89243 26.1133 8.70929 26.0418 8.82367Z" fill="#66A756"/>
</svg>
