<svg width="153" height="46" viewBox="0 0 153 46" fill="none" xmlns="http://www.w3.org/2000/svg">
<path d="M52.9141 12.7881V33.1472H68.1728V29.1969H57.2269V24.8529H64.4701V20.9026H57.2269V16.7701H68.0222V12.7881H52.9141Z" fill="black"/>
<path d="M79.2694 19.5742L76.0136 28.2914L72.7262 19.5742H68.6855L74.1136 33.1469H77.8833L83.3114 19.5742H79.2694Z" fill="black"/>
<path d="M95.8548 21.2627C94.4687 19.9067 92.7497 19.2129 90.6686 19.2129C88.5875 19.2129 86.8685 19.9067 85.4823 21.2627C84.1253 22.6213 83.4316 24.3394 83.4316 26.3601C83.4316 28.3808 84.1253 30.1002 85.4823 31.4575C86.8685 32.8147 88.5875 33.4782 90.6686 33.4782C92.7497 33.4782 94.4687 32.8147 95.8548 31.4575C97.241 30.1002 97.9359 28.3821 97.9359 26.3601C97.9359 24.3381 97.2422 22.6213 95.8548 21.2627ZM90.6686 29.6178C88.8888 29.6178 87.5027 28.201 87.5027 26.3601C87.5027 24.5192 88.8888 23.0733 90.6686 23.0733C92.4775 23.0733 93.8649 24.5204 93.8649 26.3601C93.8649 28.1998 92.4775 29.6178 90.6686 29.6178Z" fill="black"/>
<path d="M103.726 12.7881H99.8047V33.1472H103.726V12.7881Z" fill="black"/>
<path d="M114.892 22.9829V19.5746H111.726V16.9512H107.836V19.5746H105.967V22.9829H107.836V28.8349C107.823 29.4159 107.938 29.9926 108.173 30.5243C108.407 31.056 108.756 31.5296 109.193 31.9115C110.125 32.7314 111.33 33.1723 112.571 33.1473H114.892V29.468H113.204C112.359 29.468 111.726 28.8653 111.726 28.0512V22.9829H114.892Z" fill="black"/>
<path d="M120.732 13.4816C120.508 13.2551 120.24 13.0768 119.944 12.9575C119.648 12.8382 119.332 12.7805 119.013 12.7878C118.69 12.7803 118.368 12.8378 118.067 12.957C117.767 13.0762 117.493 13.2546 117.263 13.4816C116.811 13.9349 116.6 14.5071 116.6 15.201C116.6 15.8948 116.811 16.4987 117.263 16.9507C117.715 17.4027 118.319 17.6142 119.013 17.6142C119.707 17.6142 120.279 17.4027 120.732 16.9507C120.959 16.7204 121.138 16.4469 121.257 16.1463C121.376 15.8457 121.434 15.5242 121.426 15.201C121.433 14.8823 121.376 14.5654 121.256 14.2698C121.137 13.9742 120.959 13.706 120.732 13.4816ZM117.052 33.1468H120.973V19.5741H117.052V33.1468Z" fill="black"/>
<path d="M135.235 21.2627C133.848 19.9067 132.129 19.2129 130.048 19.2129C127.966 19.2129 126.249 19.9067 124.861 21.2627C123.504 22.6213 122.811 24.3394 122.811 26.3601C122.811 28.3808 123.504 30.1002 124.861 31.4575C126.249 32.8147 127.966 33.4782 130.048 33.4782C132.129 33.4782 133.848 32.8147 135.235 31.4575C136.622 30.1002 137.315 28.3821 137.315 26.3601C137.315 24.3381 136.621 22.6213 135.235 21.2627ZM130.048 29.6178C128.269 29.6178 126.882 28.201 126.882 26.3601C126.882 24.5192 128.269 23.0733 130.048 23.0733C131.858 23.0733 133.244 24.5204 133.244 26.3601C133.244 28.1998 131.858 29.6178 130.048 29.6178Z" fill="black"/>
<path d="M150.494 20.721C150.017 20.2305 149.444 19.8434 148.811 19.584C148.178 19.3246 147.499 19.1983 146.815 19.2131C145.277 19.2131 144.041 19.7858 143.106 20.9312V19.5739H139.186V33.1466H143.106V25.4563C143.106 23.9775 144.191 22.862 145.609 22.862C147.026 22.862 148.081 23.9775 148.081 25.4563V33.1466H152.001V24.4307C152.001 22.9532 151.488 21.7162 150.494 20.721Z" fill="black"/>
<path d="M17.7821 43.0819C16.9661 41.5858 16.8406 38.6724 18.6447 35.792C20.4488 32.9116 23.3606 31.4498 24.9985 31.561C26.3816 31.6543 28.8513 31.8685 30.5361 34.7488C32.2208 37.6291 32.5574 41.5295 31.737 43.0819C30.801 44.8528 27.9167 46 24.4279 46C20.939 46 18.7847 44.9217 17.7821 43.0819ZM9.03409 38.7742C4.88256 38.6278 -0.144061 33.0002 0.00315947 29.741C0.15038 26.4817 4.04633 20.708 9.03409 20.708C12.5303 20.6808 18.5867 25.9528 18.0653 29.741C17.5507 33.4787 13.3011 38.7765 9.2003 38.7768C9.14473 38.7771 9.08966 38.7761 9.03409 38.7742ZM31.4669 30.7799C30.7809 29.5217 31.6035 26.7489 33.1216 24.3253C34.6398 21.9017 36.1616 20.9929 37.5395 21.0861C38.7033 21.1645 39.9259 21.902 41.3434 24.3253C42.7609 26.7486 43.8997 29.4739 43.2094 30.7799C42.4219 32.2702 39.7663 32.589 36.8302 32.589C33.8942 32.589 32.3111 32.3283 31.4669 30.7799ZM6.14982 9.74907C6.14982 7.82088 6.72148 5.936 7.79251 4.33278C8.86354 2.72955 10.3858 1.47999 12.1669 0.742108C13.948 0.00422411 15.9078 -0.18884 17.7986 0.18733C19.6893 0.5635 21.4261 1.49201 22.7893 2.85544C24.1524 4.21887 25.0808 5.95599 25.4569 7.84712C25.8329 9.73825 25.6399 11.6985 24.9022 13.4799C24.1644 15.2613 22.9151 16.7839 21.3122 17.8551C19.7093 18.9264 17.8248 19.4981 15.897 19.4981C13.3119 19.4981 10.8326 18.471 9.0047 16.6427C7.17675 14.8144 6.14982 12.3347 6.14982 9.74907ZM33.8895 17.4699C33.7428 17.4291 33.6091 17.3511 33.5014 17.2436L29.382 13.1235C29.2723 13.0141 29.1932 12.8778 29.1526 12.7282C29.1121 12.5786 29.1114 12.421 29.1507 12.2711C29.1901 12.1213 29.268 11.9843 29.3768 11.8739C29.4855 11.7636 29.6213 11.6836 29.7706 11.6422L35.4785 10.0532C35.6298 10.0111 35.7895 10.0099 35.9414 10.0498C36.0932 10.0897 36.2317 10.1693 36.3428 10.2803C36.4538 10.3913 36.5333 10.5299 36.5732 10.6818C36.6131 10.8337 36.6119 10.9934 36.5698 11.1447L34.9809 16.8544C34.9498 16.9665 34.8969 17.0715 34.8251 17.1632C34.7534 17.2549 34.6643 17.3315 34.5629 17.3887C34.4615 17.4459 34.3499 17.4825 34.2343 17.4965C34.1187 17.5104 34.0016 17.5015 33.8895 17.4701V17.4699Z" fill="url(#paint0_linear_41_268)"/>
<defs>
<linearGradient id="paint0_linear_41_268" x1="17.9311" y1="6.44" x2="22.166" y2="45.951" gradientUnits="userSpaceOnUse">
<stop stop-color="#57C153"/>
<stop offset="1" stop-color="#2C612A"/>
</linearGradient>
</defs>
</svg>
