<svg width="18" height="26" viewBox="0 0 18 26" fill="none" xmlns="http://www.w3.org/2000/svg">
<path d="M11.2496 26H6.74979V21.6829H11.2496V26ZM11.2496 19.5244H6.74979C6.71487 18.1441 7.06578 16.7799 7.76608 15.5736C8.46638 14.3673 9.49053 13.3629 10.7322 12.6646C12.2171 11.5724 13.4996 10.6313 13.4996 8.73179C13.4996 7.58683 13.0255 6.48877 12.1816 5.67917C11.3377 4.86957 10.1932 4.41473 8.99971 4.41473C7.80628 4.41473 6.66172 4.86957 5.81784 5.67917C4.97395 6.48877 4.49986 7.58683 4.49986 8.73179H0V8.53752C0.0268523 6.24761 1.00079 4.06173 2.70755 2.46073C4.41431 0.859742 6.71409 -0.0252144 9.10096 0.000547088C11.4878 0.0263085 13.7663 0.960677 15.4351 2.5981C17.1039 4.23553 18.0263 6.44188 17.9994 8.73179C17.92 9.88034 17.5611 10.9951 16.9516 11.9865C16.342 12.978 15.4988 13.8187 14.4895 14.4411C13.5769 14.9907 12.8094 15.7357 12.2473 16.6177C11.6852 17.4997 11.3437 18.4946 11.2496 19.5244Z" fill="#66A756"/>
</svg>
